<svg width="29" height="30" viewBox="0 0 29 30" fill="currentColor" xmlns="http://www.w3.org/2000/svg">
<path d="M1.805 1.2942L18.405 0.0682012C20.444 -0.106799 20.968 0.0112012 22.25 0.943201L27.549 4.6762C28.423 5.3182 28.714 5.4932 28.714 6.1922V26.6652C28.714 27.9482 28.248 28.7072 26.617 28.8232L7.34 29.9902C6.116 30.0482 5.533 29.8732 4.892 29.0562L0.99 23.9822C0.29 23.0482 0 22.3492 0 21.5322V3.3342C0 2.2852 0.466 1.4102 1.805 1.2942Z" fill="white"/>
<path fill-rule="evenodd" clip-rule="evenodd" d="M18.405 0.0680181L1.805 1.29402C0.466 1.41002 0 2.28502 0 3.33402V21.532C0 22.349 0.29 23.048 0.99 23.982L4.892 29.056C5.533 29.873 6.116 30.048 7.34 29.99L26.617 28.823C28.247 28.707 28.714 27.948 28.714 26.665V6.19202C28.714 5.52902 28.452 5.33802 27.681 4.77202C27.6366 4.74006 27.5923 4.70806 27.548 4.67602L22.25 0.943018C20.968 0.0110181 20.444 -0.106982 18.405 0.0680181ZM7.776 5.85702C6.202 5.96302 5.845 5.98702 4.951 5.26002L2.678 3.45202C2.447 3.21802 2.563 2.92602 3.145 2.86802L19.103 1.70202C20.443 1.58502 21.141 2.05202 21.665 2.46002L24.402 4.44302C24.519 4.50202 24.81 4.85102 24.46 4.85102L7.98 5.84302L7.776 5.85702ZM5.941 26.49V9.11002C5.941 8.35102 6.174 8.00102 6.872 7.94202L25.8 6.83402C26.442 6.77602 26.732 7.18402 26.732 7.94202V25.206C26.732 25.965 26.615 26.607 25.567 26.665L7.454 27.715C6.406 27.773 5.941 27.424 5.941 26.49ZM23.821 10.042C23.937 10.567 23.821 11.092 23.296 11.152L22.423 11.325V24.157C21.665 24.565 20.967 24.798 20.384 24.798C19.452 24.798 19.219 24.506 18.521 23.632L12.812 14.65V23.34L14.618 23.749C14.618 23.749 14.618 24.799 13.161 24.799L9.144 25.032C9.027 24.798 9.144 24.215 9.551 24.099L10.6 23.808V12.318L9.144 12.2C9.027 11.675 9.318 10.917 10.134 10.858L14.444 10.568L20.384 19.666V11.617L18.87 11.443C18.753 10.8 19.219 10.333 19.801 10.276L23.821 10.042Z" fill="currentColor"/>
</svg>
