<svg width="124" height="36" viewBox="0 0 62 18" fill="none" xmlns="http://www.w3.org/2000/svg">
<path d="M11.752 8.168L8.555 6.036C8.40426 5.93543 8.22902 5.8777 8.04802 5.869C7.86701 5.8603 7.68705 5.90095 7.52735 5.9866C7.36766 6.07224 7.23424 6.19968 7.14135 6.35528C7.04847 6.51087 6.99961 6.68879 7 6.87V11.133C6.99997 11.314 7.04909 11.4917 7.14213 11.647C7.23516 11.8023 7.3686 11.9295 7.52823 12.0149C7.68786 12.1003 7.86769 12.1408 8.04852 12.132C8.22935 12.1232 8.4044 12.0655 8.555 11.965L11.752 9.833C11.889 9.74168 12.0013 9.61796 12.0789 9.47282C12.1566 9.32768 12.1972 9.16561 12.1972 9.001C12.1972 8.83639 12.1566 8.67432 12.0789 8.52918C12.0013 8.38404 11.889 8.25932 11.752 8.168Z" fill="#D2CAF6"/>
<path d="M17 9C17 10.0506 16.7931 11.0909 16.391 12.0615C15.989 13.0321 15.3997 13.914 14.6569 14.6569C13.914 15.3997 13.0321 15.989 12.0615 16.391C11.0909 16.7931 10.0506 17 9 17C7.94942 17 6.90914 16.7931 5.93853 16.391C4.96793 15.989 4.08601 15.3997 3.34315 14.6569C2.60028 13.914 2.011 13.0321 1.60896 12.0615C1.20693 11.0909 1 10.0506 1 9C1 6.87827 1.84285 4.84344 3.34315 3.34315C4.84344 1.84285 6.87827 1 9 1C11.1217 1 13.1566 1.84285 14.6569 3.34315C16.1571 4.84344 17 6.87827 17 9Z" stroke="#D2CAF6" stroke-width="2"/>
<path d="M21.6433 4.27273H23.9189L26.3223 10.1364H26.4245L28.8279 4.27273H31.1035V13H29.3137V7.3196H29.2413L26.9828 12.9574H25.764L23.5055 7.2983H23.4331V13H21.6433V4.27273ZM32.6238 13V4.27273H36.0669C36.7289 4.27273 37.2928 4.39915 37.7587 4.65199C38.2246 4.90199 38.5797 5.25 38.824 5.69602C39.0712 6.1392 39.1948 6.65057 39.1948 7.23011C39.1948 7.80966 39.0698 8.32102 38.8198 8.7642C38.5698 9.20739 38.2076 9.55256 37.7331 9.79972C37.2615 10.0469 36.6905 10.1705 36.0201 10.1705H33.8255V8.69176H35.7218C36.0769 8.69176 36.3695 8.63068 36.5996 8.50852C36.8326 8.38352 37.0059 8.21165 37.1195 7.9929C37.236 7.77131 37.2942 7.51705 37.2942 7.23011C37.2942 6.94034 37.236 6.6875 37.1195 6.47159C37.0059 6.25284 36.8326 6.08381 36.5996 5.96449C36.3667 5.84233 36.0712 5.78125 35.7132 5.78125H34.4689V13H32.6238ZM40.3933 13V4.27273H42.2385V11.4787H45.9799V13H40.3933ZM47.1678 13V6.45455H48.9831V13H47.1678ZM48.0797 5.6108C47.8098 5.6108 47.5783 5.52131 47.3851 5.34233C47.1948 5.16051 47.0996 4.94318 47.0996 4.69034C47.0996 4.44034 47.1948 4.22585 47.3851 4.04688C47.5783 3.86506 47.8098 3.77415 48.0797 3.77415C48.3496 3.77415 48.5797 3.86506 48.7701 4.04688C48.9632 4.22585 49.0598 4.44034 49.0598 4.69034C49.0598 4.94318 48.9632 5.16051 48.7701 5.34233C48.5797 5.52131 48.3496 5.6108 48.0797 5.6108ZM55.8833 8.32102L54.2214 8.4233C54.193 8.28125 54.1319 8.15341 54.0382 8.03977C53.9444 7.9233 53.8208 7.83097 53.6674 7.76278C53.5169 7.69176 53.3365 7.65625 53.1262 7.65625C52.845 7.65625 52.6078 7.71591 52.4146 7.83523C52.2214 7.9517 52.1248 8.10795 52.1248 8.30398C52.1248 8.46023 52.1873 8.59233 52.3123 8.70028C52.4373 8.80824 52.6518 8.89489 52.9558 8.96023L54.1404 9.19886C54.7768 9.32955 55.2512 9.53977 55.5637 9.82955C55.8762 10.1193 56.0325 10.5 56.0325 10.9716C56.0325 11.4006 55.9061 11.777 55.6532 12.1009C55.4032 12.4247 55.0595 12.6776 54.622 12.8594C54.1873 13.0384 53.6859 13.1278 53.1177 13.1278C52.2512 13.1278 51.5609 12.9474 51.0467 12.5866C50.5353 12.223 50.2356 11.7287 50.1475 11.1037L51.9331 11.0099C51.987 11.2741 52.1177 11.4759 52.3251 11.6151C52.5325 11.7514 52.7981 11.8196 53.122 11.8196C53.4402 11.8196 53.6958 11.7585 53.889 11.6364C54.085 11.5114 54.1845 11.3509 54.1873 11.1548C54.1845 10.9901 54.1149 10.8551 53.9785 10.75C53.8422 10.642 53.6319 10.5597 53.3478 10.5028L52.2143 10.277C51.5751 10.1491 51.0993 9.92756 50.7868 9.61222C50.4771 9.29687 50.3223 8.89489 50.3223 8.40625C50.3223 7.9858 50.4359 7.62358 50.6632 7.3196C50.8933 7.01562 51.2157 6.78125 51.6305 6.61648C52.0481 6.4517 52.5368 6.36932 53.0964 6.36932C53.9231 6.36932 54.5737 6.54403 55.0481 6.89347C55.5254 7.2429 55.8038 7.71875 55.8833 8.32102ZM60.6571 6.45455V7.81818H56.7154V6.45455H60.6571ZM57.6103 4.88636H59.4256V10.9886C59.4256 11.1562 59.4512 11.2869 59.5023 11.3807C59.5534 11.4716 59.6245 11.5355 59.7154 11.5724C59.8091 11.6094 59.9171 11.6278 60.0392 11.6278C60.1245 11.6278 60.2097 11.6207 60.2949 11.6065C60.3801 11.5895 60.4455 11.5767 60.4909 11.5682L60.7765 12.919C60.6855 12.9474 60.5577 12.9801 60.3929 13.017C60.2282 13.0568 60.0279 13.081 59.7921 13.0895C59.3546 13.1065 58.9711 13.0483 58.6415 12.9148C58.3148 12.7812 58.0605 12.5739 57.8787 12.2926C57.6969 12.0114 57.6074 11.6562 57.6103 11.2273V4.88636Z" fill="#D2CAF6"/>
</svg>
