<svg width="36" height="36" viewBox="0 0 18 18" fill="none" xmlns="http://www.w3.org/2000/svg">
<path d="M11.752 8.168L8.555 6.036C8.40426 5.93543 8.22902 5.8777 8.04802 5.869C7.86701 5.8603 7.68705 5.90095 7.52735 5.9866C7.36766 6.07224 7.23424 6.19968 7.14135 6.35528C7.04847 6.51087 6.99961 6.68879 7 6.87V11.133C6.99997 11.314 7.04909 11.4917 7.14213 11.647C7.23516 11.8023 7.3686 11.9295 7.52823 12.0149C7.68786 12.1003 7.86769 12.1408 8.04852 12.132C8.22935 12.1232 8.4044 12.0655 8.555 11.965L11.752 9.833C11.889 9.74168 12.0013 9.61796 12.0789 9.47282C12.1566 9.32768 12.1972 9.16561 12.1972 9.001C12.1972 8.83639 12.1566 8.67432 12.0789 8.52918C12.0013 8.38404 11.889 8.25932 11.752 8.168Z" fill="#D2CAF6"/>
<path d="M17 9C17 10.0506 16.7931 11.0909 16.391 12.0615C15.989 13.0321 15.3997 13.914 14.6569 14.6569C13.914 15.3997 13.0321 15.989 12.0615 16.391C11.0909 16.7931 10.0506 17 9 17C7.94942 17 6.90914 16.7931 5.93853 16.391C4.96793 15.989 4.08601 15.3997 3.34315 14.6569C2.60028 13.914 2.011 13.0321 1.60896 12.0615C1.20693 11.0909 1 10.0506 1 9C1 6.87827 1.84285 4.84344 3.34315 3.34315C4.84344 1.84285 6.87827 1 9 1C11.1217 1 13.1566 1.84285 14.6569 3.34315C16.1571 4.84344 17 6.87827 17 9Z" stroke="#D2CAF6" stroke-width="2"/>
</svg>
